<mxfile host="app.diagrams.net" modified="2022-04-21T03:40:26.579Z" agent="5.0 (Macintosh; Intel Mac OS X 10_15_7) AppleWebKit/605.1.15 (KHTML, like Gecko) Version/15.0 Safari/605.1.15" etag="kAJ7_XlPkeAXR8CfYsR6" version="17.4.5" type="github">
  <diagram id="tCeM-rysjeOYAdtQbSf4" name="Page-1">
    <mxGraphModel dx="603" dy="594" grid="1" gridSize="10" guides="1" tooltips="1" connect="1" arrows="1" fold="1" page="1" pageScale="1" pageWidth="827" pageHeight="1169" math="0" shadow="0">
      <root>
        <mxCell id="0" />
        <mxCell id="1" parent="0" />
        <mxCell id="3XY9wuWItp8q55dgm4eR-25" value="" style="endArrow=classic;html=1;rounded=0;entryX=0;entryY=0.141;entryDx=0;entryDy=0;entryPerimeter=0;" edge="1" parent="1" target="3XY9wuWItp8q55dgm4eR-24">
          <mxGeometry width="50" height="50" relative="1" as="geometry">
            <mxPoint x="250" y="2320" as="sourcePoint" />
            <mxPoint x="460" y="2320.04" as="targetPoint" />
          </mxGeometry>
        </mxCell>
        <mxCell id="3XY9wuWItp8q55dgm4eR-26" value="发送结果" style="edgeLabel;html=1;align=center;verticalAlign=middle;resizable=0;points=[];" vertex="1" connectable="0" parent="3XY9wuWItp8q55dgm4eR-25">
          <mxGeometry x="-0.1498" y="2" relative="1" as="geometry">
            <mxPoint x="164" as="offset" />
          </mxGeometry>
        </mxCell>
        <mxCell id="3XY9wuWItp8q55dgm4eR-11" style="edgeStyle=none;rounded=0;orthogonalLoop=1;jettySize=auto;html=1;entryX=0;entryY=0.25;entryDx=0;entryDy=0;exitX=0.991;exitY=0.337;exitDx=0;exitDy=0;exitPerimeter=0;" edge="1" parent="1" source="3XY9wuWItp8q55dgm4eR-4" target="3XY9wuWItp8q55dgm4eR-10">
          <mxGeometry relative="1" as="geometry">
            <mxPoint x="255.2499999999999" y="1982.5" as="sourcePoint" />
            <mxPoint x="456.01250000000005" y="1983.0499999999997" as="targetPoint" />
          </mxGeometry>
        </mxCell>
        <mxCell id="3XY9wuWItp8q55dgm4eR-14" value="收集信息指令" style="edgeLabel;html=1;align=center;verticalAlign=middle;resizable=0;points=[];" vertex="1" connectable="0" parent="3XY9wuWItp8q55dgm4eR-11">
          <mxGeometry x="-0.0485" y="2" relative="1" as="geometry">
            <mxPoint x="157" as="offset" />
          </mxGeometry>
        </mxCell>
        <mxCell id="FKuTPAZX4LTHbyCP1aJI-135" value="" style="rounded=1;whiteSpace=wrap;html=1;fontSize=18;" parent="1" vertex="1">
          <mxGeometry x="585" y="1250" width="337" height="440" as="geometry" />
        </mxCell>
        <mxCell id="FKuTPAZX4LTHbyCP1aJI-133" value="" style="rounded=0;whiteSpace=wrap;html=1;fontSize=14;" parent="1" vertex="1">
          <mxGeometry x="665" y="1300" width="220" height="320" as="geometry" />
        </mxCell>
        <mxCell id="FKuTPAZX4LTHbyCP1aJI-132" value="" style="rounded=0;whiteSpace=wrap;html=1;fontSize=14;" parent="1" vertex="1">
          <mxGeometry x="640.31" y="1320" width="220" height="320" as="geometry" />
        </mxCell>
        <mxCell id="FKuTPAZX4LTHbyCP1aJI-143" value="" style="rounded=1;whiteSpace=wrap;html=1;fontSize=18;" parent="1" vertex="1">
          <mxGeometry x="990" y="1320" width="140" height="260" as="geometry" />
        </mxCell>
        <mxCell id="FKuTPAZX4LTHbyCP1aJI-2" value="" style="rounded=0;whiteSpace=wrap;html=1;" parent="1" vertex="1">
          <mxGeometry x="130" y="270" width="310" height="200" as="geometry" />
        </mxCell>
        <mxCell id="FKuTPAZX4LTHbyCP1aJI-3" value="RDF Graph" style="text;html=1;align=center;verticalAlign=middle;resizable=0;points=[];autosize=1;strokeColor=none;fillColor=none;" parent="1" vertex="1">
          <mxGeometry x="120" y="180" width="110" height="20" as="geometry" />
        </mxCell>
        <mxCell id="FKuTPAZX4LTHbyCP1aJI-4" value="" style="shape=flexArrow;endArrow=classic;html=1;rounded=0;" parent="1" edge="1">
          <mxGeometry width="50" height="50" relative="1" as="geometry">
            <mxPoint x="170" y="210" as="sourcePoint" />
            <mxPoint x="170" y="260" as="targetPoint" />
          </mxGeometry>
        </mxCell>
        <mxCell id="FKuTPAZX4LTHbyCP1aJI-5" value="主节点" style="text;html=1;strokeColor=none;fillColor=none;align=center;verticalAlign=middle;whiteSpace=wrap;rounded=0;" parent="1" vertex="1">
          <mxGeometry x="240" y="270" width="60" height="30" as="geometry" />
        </mxCell>
        <mxCell id="FKuTPAZX4LTHbyCP1aJI-6" value="String-ID映射" style="rounded=0;whiteSpace=wrap;html=1;" parent="1" vertex="1">
          <mxGeometry x="154" y="305" width="110" height="20" as="geometry" />
        </mxCell>
        <mxCell id="FKuTPAZX4LTHbyCP1aJI-7" value="SPARQL解析器" style="rounded=0;whiteSpace=wrap;html=1;" parent="1" vertex="1">
          <mxGeometry x="300" y="305" width="105" height="20" as="geometry" />
        </mxCell>
        <mxCell id="FKuTPAZX4LTHbyCP1aJI-8" value="" style="rounded=0;whiteSpace=wrap;html=1;" parent="1" vertex="1">
          <mxGeometry x="145" y="340" width="135" height="80" as="geometry" />
        </mxCell>
        <mxCell id="FKuTPAZX4LTHbyCP1aJI-9" value="位图索引" style="rounded=0;whiteSpace=wrap;html=1;" parent="1" vertex="1">
          <mxGeometry x="151" y="346" width="58" height="30" as="geometry" />
        </mxCell>
        <mxCell id="FKuTPAZX4LTHbyCP1aJI-10" value="统计索引" style="rounded=0;whiteSpace=wrap;html=1;" parent="1" vertex="1">
          <mxGeometry x="217" y="345" width="58" height="30" as="geometry" />
        </mxCell>
        <mxCell id="FKuTPAZX4LTHbyCP1aJI-11" value="水平数据划分器" style="rounded=0;whiteSpace=wrap;html=1;" parent="1" vertex="1">
          <mxGeometry x="154" y="381" width="119" height="30" as="geometry" />
        </mxCell>
        <mxCell id="FKuTPAZX4LTHbyCP1aJI-12" value="" style="rounded=0;whiteSpace=wrap;html=1;" parent="1" vertex="1">
          <mxGeometry x="287.5" y="340" width="135" height="80" as="geometry" />
        </mxCell>
        <mxCell id="FKuTPAZX4LTHbyCP1aJI-13" value="查询计划生成器" style="rounded=0;whiteSpace=wrap;html=1;" parent="1" vertex="1">
          <mxGeometry x="295" y="346" width="58" height="30" as="geometry" />
        </mxCell>
        <mxCell id="FKuTPAZX4LTHbyCP1aJI-14" value="连接计划生成器" style="rounded=0;whiteSpace=wrap;html=1;" parent="1" vertex="1">
          <mxGeometry x="357" y="346" width="58" height="30" as="geometry" />
        </mxCell>
        <mxCell id="FKuTPAZX4LTHbyCP1aJI-16" value="查询分解" style="rounded=0;whiteSpace=wrap;html=1;" parent="1" vertex="1">
          <mxGeometry x="295" y="381" width="58" height="30" as="geometry" />
        </mxCell>
        <mxCell id="FKuTPAZX4LTHbyCP1aJI-17" value="负载统计" style="rounded=0;whiteSpace=wrap;html=1;" parent="1" vertex="1">
          <mxGeometry x="357" y="381" width="58" height="30" as="geometry" />
        </mxCell>
        <mxCell id="FKuTPAZX4LTHbyCP1aJI-18" value="异步通信库" style="rounded=0;whiteSpace=wrap;html=1;" parent="1" vertex="1">
          <mxGeometry x="141.25" y="430" width="287.5" height="30" as="geometry" />
        </mxCell>
        <mxCell id="FKuTPAZX4LTHbyCP1aJI-19" value="" style="shape=flexArrow;endArrow=classic;startArrow=classic;html=1;rounded=0;" parent="1" edge="1">
          <mxGeometry width="100" height="100" relative="1" as="geometry">
            <mxPoint x="160" y="550" as="sourcePoint" />
            <mxPoint x="160" y="485" as="targetPoint" />
          </mxGeometry>
        </mxCell>
        <mxCell id="FKuTPAZX4LTHbyCP1aJI-20" value="从节点1" style="rounded=0;whiteSpace=wrap;html=1;" parent="1" vertex="1">
          <mxGeometry x="122" y="560" width="70" height="40" as="geometry" />
        </mxCell>
        <mxCell id="FKuTPAZX4LTHbyCP1aJI-21" value="" style="shape=flexArrow;endArrow=classic;startArrow=classic;html=1;rounded=0;" parent="1" edge="1">
          <mxGeometry width="100" height="100" relative="1" as="geometry">
            <mxPoint x="294.43" y="548" as="sourcePoint" />
            <mxPoint x="294.43" y="483" as="targetPoint" />
          </mxGeometry>
        </mxCell>
        <mxCell id="FKuTPAZX4LTHbyCP1aJI-22" value="从节点2" style="rounded=0;whiteSpace=wrap;html=1;" parent="1" vertex="1">
          <mxGeometry x="266" y="560" width="70" height="40" as="geometry" />
        </mxCell>
        <mxCell id="FKuTPAZX4LTHbyCP1aJI-23" value="" style="shape=flexArrow;endArrow=classic;startArrow=classic;html=1;rounded=0;" parent="1" edge="1">
          <mxGeometry width="100" height="100" relative="1" as="geometry">
            <mxPoint x="428.75000000000006" y="548" as="sourcePoint" />
            <mxPoint x="428.75000000000006" y="483" as="targetPoint" />
          </mxGeometry>
        </mxCell>
        <mxCell id="FKuTPAZX4LTHbyCP1aJI-25" value="" style="rounded=0;whiteSpace=wrap;html=1;" parent="1" vertex="1">
          <mxGeometry x="414" y="555" width="310" height="165" as="geometry" />
        </mxCell>
        <mxCell id="FKuTPAZX4LTHbyCP1aJI-26" value="" style="shape=flexArrow;endArrow=classic;startArrow=classic;html=1;rounded=0;" parent="1" edge="1">
          <mxGeometry width="100" height="100" relative="1" as="geometry">
            <mxPoint x="200" y="579.71" as="sourcePoint" />
            <mxPoint x="260" y="580" as="targetPoint" />
          </mxGeometry>
        </mxCell>
        <mxCell id="FKuTPAZX4LTHbyCP1aJI-27" value="&lt;font style=&quot;font-size: 24px&quot;&gt;...&lt;/font&gt;" style="text;html=1;strokeColor=none;fillColor=none;align=center;verticalAlign=middle;whiteSpace=wrap;rounded=0;" parent="1" vertex="1">
          <mxGeometry x="345" y="558" width="60" height="30" as="geometry" />
        </mxCell>
        <mxCell id="FKuTPAZX4LTHbyCP1aJI-28" value="&lt;font style=&quot;font-size: 14px&quot;&gt;从节点n&lt;/font&gt;" style="text;html=1;align=center;verticalAlign=middle;resizable=0;points=[];autosize=1;strokeColor=none;fillColor=none;fontSize=24;" parent="1" vertex="1">
          <mxGeometry x="520" y="545" width="80" height="40" as="geometry" />
        </mxCell>
        <mxCell id="FKuTPAZX4LTHbyCP1aJI-29" value="异步通信库" style="rounded=0;whiteSpace=wrap;html=1;" parent="1" vertex="1">
          <mxGeometry x="425.25" y="585" width="287.5" height="30" as="geometry" />
        </mxCell>
        <mxCell id="FKuTPAZX4LTHbyCP1aJI-30" value="数据划分执行器" style="rounded=0;whiteSpace=wrap;html=1;fontSize=14;" parent="1" vertex="1">
          <mxGeometry x="429" y="625" width="81" height="35" as="geometry" />
        </mxCell>
        <mxCell id="FKuTPAZX4LTHbyCP1aJI-31" value="负载统计执行器" style="rounded=0;whiteSpace=wrap;html=1;fontSize=14;" parent="1" vertex="1">
          <mxGeometry x="533" y="625" width="80" height="35" as="geometry" />
        </mxCell>
        <mxCell id="FKuTPAZX4LTHbyCP1aJI-32" value="查询计划执行器" style="rounded=0;whiteSpace=wrap;html=1;fontSize=14;" parent="1" vertex="1">
          <mxGeometry x="634.75" y="625" width="79.25" height="35" as="geometry" />
        </mxCell>
        <mxCell id="FKuTPAZX4LTHbyCP1aJI-33" value="TripleBit" style="rounded=0;whiteSpace=wrap;html=1;" parent="1" vertex="1">
          <mxGeometry x="425.25" y="670" width="287.5" height="30" as="geometry" />
        </mxCell>
        <mxCell id="FKuTPAZX4LTHbyCP1aJI-34" value="" style="rounded=0;whiteSpace=wrap;html=1;fontSize=14;" parent="1" vertex="1">
          <mxGeometry x="220" y="820" width="220" height="380" as="geometry" />
        </mxCell>
        <mxCell id="FKuTPAZX4LTHbyCP1aJI-35" value="数据划分执行器" style="text;html=1;align=center;verticalAlign=middle;resizable=0;points=[];autosize=1;strokeColor=none;fillColor=none;fontSize=14;" parent="1" vertex="1">
          <mxGeometry x="263" y="830" width="140" height="20" as="geometry" />
        </mxCell>
        <mxCell id="FKuTPAZX4LTHbyCP1aJI-36" value="Allocator控制层" style="rounded=0;whiteSpace=wrap;html=1;fontSize=14;" parent="1" vertex="1">
          <mxGeometry x="235.25" y="870" width="190" height="30" as="geometry" />
        </mxCell>
        <mxCell id="FKuTPAZX4LTHbyCP1aJI-37" value="Manager管理层" style="rounded=0;whiteSpace=wrap;html=1;fontSize=14;" parent="1" vertex="1">
          <mxGeometry x="232.5" y="1010" width="190" height="30" as="geometry" />
        </mxCell>
        <mxCell id="FKuTPAZX4LTHbyCP1aJI-38" value="CSR Graph 存储层" style="rounded=0;whiteSpace=wrap;html=1;fontSize=14;" parent="1" vertex="1">
          <mxGeometry x="235.25" y="1150" width="190" height="30" as="geometry" />
        </mxCell>
        <mxCell id="FKuTPAZX4LTHbyCP1aJI-39" value="边分区状态接口" style="rounded=0;whiteSpace=wrap;html=1;fontSize=14;dashed=1;" parent="1" vertex="1">
          <mxGeometry x="241" y="1050" width="77.5" height="40" as="geometry" />
        </mxCell>
        <mxCell id="FKuTPAZX4LTHbyCP1aJI-40" value="点分区状态接口" style="rounded=0;whiteSpace=wrap;html=1;fontSize=14;dashed=1;" parent="1" vertex="1">
          <mxGeometry x="339" y="1050" width="75" height="40" as="geometry" />
        </mxCell>
        <mxCell id="FKuTPAZX4LTHbyCP1aJI-41" value="边信息接口" style="rounded=0;whiteSpace=wrap;html=1;fontSize=14;dashed=1;" parent="1" vertex="1">
          <mxGeometry x="241" y="1100" width="77.5" height="40" as="geometry" />
        </mxCell>
        <mxCell id="FKuTPAZX4LTHbyCP1aJI-42" value="点信息接口" style="rounded=0;whiteSpace=wrap;html=1;fontSize=14;dashed=1;" parent="1" vertex="1">
          <mxGeometry x="337.75" y="1100" width="77.5" height="40" as="geometry" />
        </mxCell>
        <mxCell id="FKuTPAZX4LTHbyCP1aJI-43" value="Edge Collect" style="rounded=0;whiteSpace=wrap;html=1;fontSize=14;dashed=1;" parent="1" vertex="1">
          <mxGeometry x="243" y="910" width="167" height="20" as="geometry" />
        </mxCell>
        <mxCell id="FKuTPAZX4LTHbyCP1aJI-44" value="Edge Allocate" style="rounded=0;whiteSpace=wrap;html=1;fontSize=14;dashed=1;" parent="1" vertex="1">
          <mxGeometry x="242.5" y="946" width="167.5" height="20" as="geometry" />
        </mxCell>
        <mxCell id="FKuTPAZX4LTHbyCP1aJI-45" value="Boundary Update" style="rounded=0;whiteSpace=wrap;html=1;fontSize=14;dashed=1;" parent="1" vertex="1">
          <mxGeometry x="243" y="979" width="167.5" height="20" as="geometry" />
        </mxCell>
        <mxCell id="FKuTPAZX4LTHbyCP1aJI-49" value="" style="strokeWidth=2;html=1;shape=mxgraph.flowchart.document2;whiteSpace=wrap;size=0.25;fontSize=14;" parent="1" vertex="1">
          <mxGeometry x="82" y="1400" width="97.5" height="50" as="geometry" />
        </mxCell>
        <mxCell id="FKuTPAZX4LTHbyCP1aJI-50" value="" style="strokeWidth=2;html=1;shape=mxgraph.flowchart.document2;whiteSpace=wrap;size=0.25;fontSize=14;" parent="1" vertex="1">
          <mxGeometry x="67" y="1410" width="97.5" height="50" as="geometry" />
        </mxCell>
        <mxCell id="FKuTPAZX4LTHbyCP1aJI-51" value="RDF源数据集" style="strokeWidth=2;html=1;shape=mxgraph.flowchart.document2;whiteSpace=wrap;size=0.25;fontSize=14;" parent="1" vertex="1">
          <mxGeometry x="50" y="1420" width="97.5" height="50" as="geometry" />
        </mxCell>
        <mxCell id="FKuTPAZX4LTHbyCP1aJI-53" value="" style="rounded=1;whiteSpace=wrap;html=1;fontSize=14;" parent="1" vertex="1">
          <mxGeometry x="242.5" y="1380" width="267.5" height="150" as="geometry" />
        </mxCell>
        <mxCell id="FKuTPAZX4LTHbyCP1aJI-54" value="主节点" style="text;html=1;align=center;verticalAlign=middle;resizable=0;points=[];autosize=1;strokeColor=none;fillColor=none;fontSize=14;" parent="1" vertex="1">
          <mxGeometry x="333" y="1380" width="70" height="20" as="geometry" />
        </mxCell>
        <mxCell id="FKuTPAZX4LTHbyCP1aJI-126" style="edgeStyle=none;rounded=0;orthogonalLoop=1;jettySize=auto;html=1;fontSize=36;startArrow=none;startFill=0;endArrow=classic;endFill=1;" parent="1" source="FKuTPAZX4LTHbyCP1aJI-56" target="FKuTPAZX4LTHbyCP1aJI-60" edge="1">
          <mxGeometry relative="1" as="geometry" />
        </mxCell>
        <mxCell id="FKuTPAZX4LTHbyCP1aJI-127" style="edgeStyle=none;rounded=0;orthogonalLoop=1;jettySize=auto;html=1;entryX=0;entryY=0.5;entryDx=0;entryDy=0;fontSize=36;startArrow=none;startFill=0;endArrow=classic;endFill=1;" parent="1" source="FKuTPAZX4LTHbyCP1aJI-56" target="FKuTPAZX4LTHbyCP1aJI-57" edge="1">
          <mxGeometry relative="1" as="geometry" />
        </mxCell>
        <mxCell id="FKuTPAZX4LTHbyCP1aJI-56" value="数据解析" style="rounded=0;whiteSpace=wrap;html=1;fontSize=14;" parent="1" vertex="1">
          <mxGeometry x="260" y="1410" width="97" height="30" as="geometry" />
        </mxCell>
        <mxCell id="FKuTPAZX4LTHbyCP1aJI-129" style="edgeStyle=none;rounded=0;orthogonalLoop=1;jettySize=auto;html=1;fontSize=36;startArrow=none;startFill=0;endArrow=classic;endFill=1;exitX=1;exitY=0.5;exitDx=0;exitDy=0;" parent="1" source="FKuTPAZX4LTHbyCP1aJI-57" edge="1">
          <mxGeometry relative="1" as="geometry">
            <mxPoint x="540" y="1425" as="sourcePoint" />
            <mxPoint x="582" y="1425" as="targetPoint" />
          </mxGeometry>
        </mxCell>
        <mxCell id="FKuTPAZX4LTHbyCP1aJI-57" value="水平划分" style="rounded=0;whiteSpace=wrap;html=1;fontSize=14;" parent="1" vertex="1">
          <mxGeometry x="391" y="1410" width="97" height="30" as="geometry" />
        </mxCell>
        <mxCell id="FKuTPAZX4LTHbyCP1aJI-60" value="String-ID映射" style="rounded=0;whiteSpace=wrap;html=1;fontSize=14;" parent="1" vertex="1">
          <mxGeometry x="262" y="1480" width="97" height="30" as="geometry" />
        </mxCell>
        <mxCell id="FKuTPAZX4LTHbyCP1aJI-136" style="edgeStyle=orthogonalEdgeStyle;rounded=0;orthogonalLoop=1;jettySize=auto;html=1;entryX=-0.005;entryY=0.556;entryDx=0;entryDy=0;entryPerimeter=0;fontSize=18;startArrow=classic;startFill=1;endArrow=none;endFill=0;" parent="1" source="FKuTPAZX4LTHbyCP1aJI-61" target="FKuTPAZX4LTHbyCP1aJI-135" edge="1">
          <mxGeometry relative="1" as="geometry" />
        </mxCell>
        <mxCell id="FKuTPAZX4LTHbyCP1aJI-61" value="统计索引" style="rounded=0;whiteSpace=wrap;html=1;fontSize=14;" parent="1" vertex="1">
          <mxGeometry x="391" y="1480" width="97" height="30" as="geometry" />
        </mxCell>
        <mxCell id="FKuTPAZX4LTHbyCP1aJI-64" value="" style="rounded=0;whiteSpace=wrap;html=1;fontSize=14;" parent="1" vertex="1">
          <mxGeometry x="612" y="1340" width="220" height="320" as="geometry" />
        </mxCell>
        <mxCell id="FKuTPAZX4LTHbyCP1aJI-65" value="数据划分执行器" style="text;html=1;align=center;verticalAlign=middle;resizable=0;points=[];autosize=1;strokeColor=none;fillColor=none;fontSize=14;" parent="1" vertex="1">
          <mxGeometry x="674.5" y="1270" width="140" height="20" as="geometry" />
        </mxCell>
        <mxCell id="FKuTPAZX4LTHbyCP1aJI-66" value="Allocator控制层" style="rounded=0;whiteSpace=wrap;html=1;fontSize=14;" parent="1" vertex="1">
          <mxGeometry x="627.25" y="1380" width="190" height="30" as="geometry" />
        </mxCell>
        <mxCell id="FKuTPAZX4LTHbyCP1aJI-67" value="Manager管理层" style="rounded=0;whiteSpace=wrap;html=1;fontSize=14;" parent="1" vertex="1">
          <mxGeometry x="624.5" y="1520" width="190" height="30" as="geometry" />
        </mxCell>
        <mxCell id="FKuTPAZX4LTHbyCP1aJI-68" value="CSR Graph 存储层" style="rounded=0;whiteSpace=wrap;html=1;fontSize=14;" parent="1" vertex="1">
          <mxGeometry x="629" y="1620" width="190" height="30" as="geometry" />
        </mxCell>
        <mxCell id="FKuTPAZX4LTHbyCP1aJI-69" value="分区状态接口" style="rounded=0;whiteSpace=wrap;html=1;fontSize=14;dashed=1;" parent="1" vertex="1">
          <mxGeometry x="640.31" y="1560" width="159" height="20" as="geometry" />
        </mxCell>
        <mxCell id="FKuTPAZX4LTHbyCP1aJI-70" value="图信息接口" style="rounded=0;whiteSpace=wrap;html=1;fontSize=14;dashed=1;" parent="1" vertex="1">
          <mxGeometry x="647.63" y="1590" width="144.37" height="20" as="geometry" />
        </mxCell>
        <mxCell id="FKuTPAZX4LTHbyCP1aJI-73" value="Edge Collect" style="rounded=0;whiteSpace=wrap;html=1;fontSize=14;dashed=1;" parent="1" vertex="1">
          <mxGeometry x="635" y="1420" width="167" height="20" as="geometry" />
        </mxCell>
        <mxCell id="FKuTPAZX4LTHbyCP1aJI-74" value="Edge Allocate" style="rounded=0;whiteSpace=wrap;html=1;fontSize=14;dashed=1;" parent="1" vertex="1">
          <mxGeometry x="634.5" y="1456" width="167.5" height="20" as="geometry" />
        </mxCell>
        <mxCell id="FKuTPAZX4LTHbyCP1aJI-75" value="Boundary Update" style="rounded=0;whiteSpace=wrap;html=1;fontSize=14;dashed=1;" parent="1" vertex="1">
          <mxGeometry x="635" y="1489" width="167.5" height="20" as="geometry" />
        </mxCell>
        <mxCell id="FKuTPAZX4LTHbyCP1aJI-125" style="rounded=0;orthogonalLoop=1;jettySize=auto;html=1;fontSize=36;startArrow=none;startFill=0;endArrow=classic;endFill=1;" parent="1" source="FKuTPAZX4LTHbyCP1aJI-49" target="FKuTPAZX4LTHbyCP1aJI-56" edge="1">
          <mxGeometry relative="1" as="geometry" />
        </mxCell>
        <mxCell id="FKuTPAZX4LTHbyCP1aJI-131" value="&lt;font style=&quot;font-size: 18px&quot;&gt;数据存储&lt;/font&gt;" style="strokeWidth=2;html=1;shape=mxgraph.flowchart.database;whiteSpace=wrap;fontSize=36;" parent="1" vertex="1">
          <mxGeometry x="1020" y="1350" width="80" height="60" as="geometry" />
        </mxCell>
        <mxCell id="FKuTPAZX4LTHbyCP1aJI-137" value="&lt;font style=&quot;font-size: 18px&quot;&gt;数据存储&lt;/font&gt;" style="strokeWidth=2;html=1;shape=mxgraph.flowchart.database;whiteSpace=wrap;fontSize=36;" parent="1" vertex="1">
          <mxGeometry x="1020" y="1425" width="80" height="60" as="geometry" />
        </mxCell>
        <mxCell id="FKuTPAZX4LTHbyCP1aJI-145" value="" style="shape=flexArrow;endArrow=classic;html=1;rounded=0;fontSize=18;" parent="1" edge="1">
          <mxGeometry width="50" height="50" relative="1" as="geometry">
            <mxPoint x="930" y="1449.43" as="sourcePoint" />
            <mxPoint x="980" y="1449.43" as="targetPoint" />
          </mxGeometry>
        </mxCell>
        <mxCell id="FKuTPAZX4LTHbyCP1aJI-146" value="从节点1" style="text;html=1;align=center;verticalAlign=middle;resizable=0;points=[];autosize=1;strokeColor=none;fillColor=none;fontSize=18;" parent="1" vertex="1">
          <mxGeometry x="681.5" y="1344" width="80" height="30" as="geometry" />
        </mxCell>
        <mxCell id="FKuTPAZX4LTHbyCP1aJI-148" value="&lt;font style=&quot;font-size: 18px&quot;&gt;数据存储&lt;/font&gt;" style="strokeWidth=2;html=1;shape=mxgraph.flowchart.database;whiteSpace=wrap;fontSize=36;" parent="1" vertex="1">
          <mxGeometry x="1020" y="1500" width="80" height="60" as="geometry" />
        </mxCell>
        <mxCell id="3XY9wuWItp8q55dgm4eR-5" style="rounded=0;orthogonalLoop=1;jettySize=auto;html=1;entryX=0.5;entryY=0;entryDx=0;entryDy=0;" edge="1" parent="1" source="3XY9wuWItp8q55dgm4eR-1" target="3XY9wuWItp8q55dgm4eR-4">
          <mxGeometry relative="1" as="geometry" />
        </mxCell>
        <mxCell id="3XY9wuWItp8q55dgm4eR-1" value="从节点1" style="rounded=0;whiteSpace=wrap;html=1;" vertex="1" parent="1">
          <mxGeometry x="147.5" y="1804" width="120" height="60" as="geometry" />
        </mxCell>
        <mxCell id="3XY9wuWItp8q55dgm4eR-34" style="edgeStyle=orthogonalEdgeStyle;rounded=0;orthogonalLoop=1;jettySize=auto;html=1;" edge="1" parent="1" source="3XY9wuWItp8q55dgm4eR-2">
          <mxGeometry relative="1" as="geometry">
            <mxPoint x="483" y="1940" as="targetPoint" />
          </mxGeometry>
        </mxCell>
        <mxCell id="3XY9wuWItp8q55dgm4eR-2" value="从节点2" style="rounded=0;whiteSpace=wrap;html=1;" vertex="1" parent="1">
          <mxGeometry x="422.5" y="1804" width="120" height="60" as="geometry" />
        </mxCell>
        <mxCell id="3XY9wuWItp8q55dgm4eR-35" style="edgeStyle=orthogonalEdgeStyle;rounded=0;orthogonalLoop=1;jettySize=auto;html=1;entryX=0.399;entryY=-0.012;entryDx=0;entryDy=0;entryPerimeter=0;" edge="1" parent="1" source="3XY9wuWItp8q55dgm4eR-3" target="3XY9wuWItp8q55dgm4eR-10">
          <mxGeometry relative="1" as="geometry" />
        </mxCell>
        <mxCell id="3XY9wuWItp8q55dgm4eR-3" value="从节点3" style="rounded=0;whiteSpace=wrap;html=1;" vertex="1" parent="1">
          <mxGeometry x="715" y="1804" width="120" height="60" as="geometry" />
        </mxCell>
        <mxCell id="3XY9wuWItp8q55dgm4eR-7" style="edgeStyle=none;rounded=0;orthogonalLoop=1;jettySize=auto;html=1;entryX=-0.009;entryY=0.188;entryDx=0;entryDy=0;entryPerimeter=0;exitX=1.018;exitY=0.212;exitDx=0;exitDy=0;exitPerimeter=0;" edge="1" parent="1" source="3XY9wuWItp8q55dgm4eR-4" target="3XY9wuWItp8q55dgm4eR-6">
          <mxGeometry relative="1" as="geometry">
            <mxPoint x="250" y="1970" as="sourcePoint" />
          </mxGeometry>
        </mxCell>
        <mxCell id="3XY9wuWItp8q55dgm4eR-8" value="收集信息指令" style="edgeLabel;html=1;align=center;verticalAlign=middle;resizable=0;points=[];" vertex="1" connectable="0" parent="3XY9wuWItp8q55dgm4eR-7">
          <mxGeometry x="-0.2753" relative="1" as="geometry">
            <mxPoint as="offset" />
          </mxGeometry>
        </mxCell>
        <mxCell id="3XY9wuWItp8q55dgm4eR-19" style="edgeStyle=orthogonalEdgeStyle;rounded=0;orthogonalLoop=1;jettySize=auto;html=1;entryX=0.5;entryY=0;entryDx=0;entryDy=0;" edge="1" parent="1" source="3XY9wuWItp8q55dgm4eR-4" target="3XY9wuWItp8q55dgm4eR-16">
          <mxGeometry relative="1" as="geometry" />
        </mxCell>
        <mxCell id="3XY9wuWItp8q55dgm4eR-4" value="收集边界点邻边信息阶段" style="rounded=1;whiteSpace=wrap;html=1;" vertex="1" parent="1">
          <mxGeometry x="172.75" y="1930" width="72.5" height="190" as="geometry" />
        </mxCell>
        <mxCell id="3XY9wuWItp8q55dgm4eR-33" style="edgeStyle=orthogonalEdgeStyle;rounded=0;orthogonalLoop=1;jettySize=auto;html=1;" edge="1" parent="1" source="3XY9wuWItp8q55dgm4eR-6" target="3XY9wuWItp8q55dgm4eR-21">
          <mxGeometry relative="1" as="geometry" />
        </mxCell>
        <mxCell id="3XY9wuWItp8q55dgm4eR-6" value="Edge Collect" style="rounded=1;whiteSpace=wrap;html=1;" vertex="1" parent="1">
          <mxGeometry x="450" y="1942" width="72.5" height="150" as="geometry" />
        </mxCell>
        <mxCell id="3XY9wuWItp8q55dgm4eR-9" value="完成指令" style="endArrow=classic;html=1;rounded=0;exitX=0;exitY=0.853;exitDx=0;exitDy=0;exitPerimeter=0;entryX=1;entryY=0.75;entryDx=0;entryDy=0;" edge="1" parent="1" source="3XY9wuWItp8q55dgm4eR-6" target="3XY9wuWItp8q55dgm4eR-4">
          <mxGeometry width="50" height="50" relative="1" as="geometry">
            <mxPoint x="300" y="2120" as="sourcePoint" />
            <mxPoint x="350" y="2070" as="targetPoint" />
          </mxGeometry>
        </mxCell>
        <mxCell id="3XY9wuWItp8q55dgm4eR-36" style="edgeStyle=orthogonalEdgeStyle;rounded=0;orthogonalLoop=1;jettySize=auto;html=1;" edge="1" parent="1" source="3XY9wuWItp8q55dgm4eR-10">
          <mxGeometry relative="1" as="geometry">
            <mxPoint x="783" y="2300" as="targetPoint" />
          </mxGeometry>
        </mxCell>
        <mxCell id="3XY9wuWItp8q55dgm4eR-10" value="Edge Collect" style="rounded=1;whiteSpace=wrap;html=1;" vertex="1" parent="1">
          <mxGeometry x="746.5" y="1960" width="72.5" height="150" as="geometry" />
        </mxCell>
        <mxCell id="3XY9wuWItp8q55dgm4eR-15" value="完成指令" style="endArrow=classic;html=1;rounded=0;exitX=0;exitY=0.951;exitDx=0;exitDy=0;exitPerimeter=0;entryX=1.018;entryY=0.924;entryDx=0;entryDy=0;entryPerimeter=0;" edge="1" parent="1" source="3XY9wuWItp8q55dgm4eR-10" target="3XY9wuWItp8q55dgm4eR-4">
          <mxGeometry x="-0.4171" y="1" width="50" height="50" relative="1" as="geometry">
            <mxPoint x="460" y="2079.95" as="sourcePoint" />
            <mxPoint x="255.75749999999994" y="2081.27" as="targetPoint" />
            <Array as="points" />
            <mxPoint as="offset" />
          </mxGeometry>
        </mxCell>
        <mxCell id="3XY9wuWItp8q55dgm4eR-20" style="edgeStyle=orthogonalEdgeStyle;rounded=0;orthogonalLoop=1;jettySize=auto;html=1;entryX=0.457;entryY=0.007;entryDx=0;entryDy=0;entryPerimeter=0;" edge="1" parent="1" source="3XY9wuWItp8q55dgm4eR-16" target="3XY9wuWItp8q55dgm4eR-17">
          <mxGeometry relative="1" as="geometry" />
        </mxCell>
        <mxCell id="3XY9wuWItp8q55dgm4eR-16" value="计算顶点权重放入优先队列" style="rounded=1;whiteSpace=wrap;html=1;" vertex="1" parent="1">
          <mxGeometry x="172.75" y="2160" width="72.5" height="100" as="geometry" />
        </mxCell>
        <mxCell id="3XY9wuWItp8q55dgm4eR-32" style="edgeStyle=orthogonalEdgeStyle;rounded=0;orthogonalLoop=1;jettySize=auto;html=1;" edge="1" parent="1" source="3XY9wuWItp8q55dgm4eR-17">
          <mxGeometry relative="1" as="geometry">
            <mxPoint x="212.5" y="2490" as="targetPoint" />
          </mxGeometry>
        </mxCell>
        <mxCell id="3XY9wuWItp8q55dgm4eR-17" value="依据边平衡约束条件得到结果集" style="rounded=1;whiteSpace=wrap;html=1;" vertex="1" parent="1">
          <mxGeometry x="176.25" y="2300" width="72.5" height="120" as="geometry" />
        </mxCell>
        <mxCell id="3XY9wuWItp8q55dgm4eR-18" style="edgeStyle=orthogonalEdgeStyle;rounded=0;orthogonalLoop=1;jettySize=auto;html=1;exitX=1;exitY=0.25;exitDx=0;exitDy=0;" edge="1" parent="1" source="3XY9wuWItp8q55dgm4eR-17">
          <mxGeometry relative="1" as="geometry">
            <mxPoint x="249" y="2380" as="targetPoint" />
            <Array as="points">
              <mxPoint x="249" y="2330" />
              <mxPoint x="270" y="2330" />
              <mxPoint x="270" y="2380" />
              <mxPoint x="249" y="2380" />
            </Array>
          </mxGeometry>
        </mxCell>
        <mxCell id="3XY9wuWItp8q55dgm4eR-37" style="edgeStyle=orthogonalEdgeStyle;rounded=0;orthogonalLoop=1;jettySize=auto;html=1;" edge="1" parent="1" source="3XY9wuWItp8q55dgm4eR-21">
          <mxGeometry relative="1" as="geometry">
            <mxPoint x="486.25" y="2470" as="targetPoint" />
          </mxGeometry>
        </mxCell>
        <mxCell id="3XY9wuWItp8q55dgm4eR-21" value="更新边的状态，更新边界点的状态" style="rounded=1;whiteSpace=wrap;html=1;" vertex="1" parent="1">
          <mxGeometry x="450" y="2292" width="72.5" height="110" as="geometry" />
        </mxCell>
        <mxCell id="3XY9wuWItp8q55dgm4eR-22" value="" style="endArrow=classic;html=1;rounded=0;exitX=0.996;exitY=0.093;exitDx=0;exitDy=0;exitPerimeter=0;entryX=0;entryY=0.167;entryDx=0;entryDy=0;entryPerimeter=0;" edge="1" parent="1" source="3XY9wuWItp8q55dgm4eR-17" target="3XY9wuWItp8q55dgm4eR-21">
          <mxGeometry width="50" height="50" relative="1" as="geometry">
            <mxPoint x="300" y="2300" as="sourcePoint" />
            <mxPoint x="350" y="2250" as="targetPoint" />
          </mxGeometry>
        </mxCell>
        <mxCell id="3XY9wuWItp8q55dgm4eR-23" value="发送结果" style="edgeLabel;html=1;align=center;verticalAlign=middle;resizable=0;points=[];" vertex="1" connectable="0" parent="3XY9wuWItp8q55dgm4eR-22">
          <mxGeometry x="-0.1498" y="2" relative="1" as="geometry">
            <mxPoint as="offset" />
          </mxGeometry>
        </mxCell>
        <mxCell id="3XY9wuWItp8q55dgm4eR-38" style="edgeStyle=orthogonalEdgeStyle;rounded=0;orthogonalLoop=1;jettySize=auto;html=1;" edge="1" parent="1" source="3XY9wuWItp8q55dgm4eR-24">
          <mxGeometry relative="1" as="geometry">
            <mxPoint x="783" y="2480" as="targetPoint" />
          </mxGeometry>
        </mxCell>
        <mxCell id="3XY9wuWItp8q55dgm4eR-24" value="更新边的状态，更新边界点的状态" style="rounded=1;whiteSpace=wrap;html=1;" vertex="1" parent="1">
          <mxGeometry x="746.5" y="2304" width="72.5" height="110" as="geometry" />
        </mxCell>
        <mxCell id="3XY9wuWItp8q55dgm4eR-29" value="完成" style="endArrow=classic;html=1;rounded=0;exitX=0;exitY=0.927;exitDx=0;exitDy=0;exitPerimeter=0;entryX=1.002;entryY=0.9;entryDx=0;entryDy=0;entryPerimeter=0;" edge="1" parent="1" source="3XY9wuWItp8q55dgm4eR-24" target="3XY9wuWItp8q55dgm4eR-17">
          <mxGeometry x="-0.5331" y="-1" width="50" height="50" relative="1" as="geometry">
            <mxPoint x="460" y="2410.04" as="sourcePoint" />
            <mxPoint x="259.98249999999996" y="2409.99" as="targetPoint" />
            <mxPoint as="offset" />
          </mxGeometry>
        </mxCell>
        <mxCell id="3XY9wuWItp8q55dgm4eR-31" value="完成" style="endArrow=classic;html=1;rounded=0;entryX=0.983;entryY=0.791;entryDx=0;entryDy=0;entryPerimeter=0;exitX=-0.009;exitY=0.921;exitDx=0;exitDy=0;exitPerimeter=0;" edge="1" parent="1" source="3XY9wuWItp8q55dgm4eR-21" target="3XY9wuWItp8q55dgm4eR-17">
          <mxGeometry width="50" height="50" relative="1" as="geometry">
            <mxPoint x="300" y="2400" as="sourcePoint" />
            <mxPoint x="350" y="2350" as="targetPoint" />
          </mxGeometry>
        </mxCell>
      </root>
    </mxGraphModel>
  </diagram>
</mxfile>
